<svg width="35" height="36" viewBox="0 0 35 36" fill="none" xmlns="http://www.w3.org/2000/svg">
<path fill-rule="evenodd" clip-rule="evenodd" d="M35 18.0417C35 27.706 27.1644 35.5417 17.5 35.5417C7.83563 35.5417 0 27.706 0 18.0417C0 8.3773 7.83563 0.541672 17.5 0.541672C27.1644 0.541672 35 8.3773 35 18.0417ZM18.1271 13.461C16.4252 14.1683 13.0229 15.634 7.92167 17.8565C7.09333 18.186 6.65875 18.5083 6.61938 18.8233C6.55229 19.3571 7.22021 19.5671 8.12729 19.8515C8.25125 19.8908 8.37958 19.9302 8.51083 19.974C9.40479 20.2642 10.6065 20.604 11.2306 20.6171C11.7979 20.6288 12.4308 20.3954 13.1294 19.9171C17.8952 16.6985 20.3554 15.0725 20.51 15.0375C20.6194 15.0127 20.771 14.9806 20.8731 15.0725C20.9752 15.1629 20.965 15.335 20.9548 15.3817C20.8877 15.6631 18.2715 18.0971 16.9152 19.3571C16.4923 19.7494 16.1933 20.0279 16.1321 20.0921C15.995 20.2335 15.855 20.3692 15.7208 20.499C14.8896 21.2981 14.2683 21.899 15.7558 22.879C16.4704 23.35 17.0421 23.7394 17.6123 24.1273C18.235 24.5517 18.8563 24.9746 19.6613 25.5025C19.8654 25.6367 20.0608 25.7752 20.2519 25.9108C20.9767 26.4285 21.6285 26.8923 22.4335 26.8194C22.9002 26.7756 23.3844 26.3367 23.6294 25.0256C24.2083 21.9252 25.3488 15.211 25.6127 12.4431C25.6288 12.2133 25.619 11.9824 25.5835 11.7548C25.5623 11.5709 25.4728 11.4018 25.3327 11.2808C25.1242 11.1102 24.8004 11.0738 24.6546 11.0767C23.9969 11.0883 22.9877 11.4398 18.1271 13.461Z" fill="#B06F14"/>
</svg>
