<svg width="33" height="33" viewBox="0 0 33 33" fill="none" xmlns="http://www.w3.org/2000/svg">
<path fill-rule="evenodd" clip-rule="evenodd" d="M9.8865 0.09625C11.5971 0.0175 12.1425 0 16.5 0C20.8575 0 21.403 0.0189583 23.1121 0.09625C24.8213 0.173542 25.988 0.44625 27.0088 0.841458C28.0777 1.24542 29.0475 1.87687 29.8496 2.69354C30.6663 3.49417 31.2963 4.4625 31.6988 5.53292C32.0955 6.55375 32.3667 7.72042 32.4455 9.42667C32.5242 11.1402 32.5417 11.6856 32.5417 16.0417C32.5417 20.3992 32.5227 20.9446 32.4455 22.6552C32.3682 24.3615 32.0955 25.5281 31.6988 26.549C31.2963 27.6195 30.6652 28.5895 29.8496 29.3912C29.0475 30.2079 28.0777 30.8379 27.0088 31.2404C25.988 31.6371 24.8213 31.9083 23.115 31.9871C21.403 32.0658 20.8575 32.0833 16.5 32.0833C12.1425 32.0833 11.5971 32.0644 9.8865 31.9871C8.18025 31.9098 7.01358 31.6371 5.99275 31.2404C4.92222 30.8379 3.95228 30.2068 3.15046 29.3912C2.33434 28.5901 1.70279 27.6207 1.29983 26.5504C0.904624 25.5296 0.633374 24.3629 0.554624 22.6567C0.475874 20.9431 0.458374 20.3977 0.458374 16.0417C0.458374 11.6842 0.477332 11.1387 0.554624 9.42958C0.631916 7.72042 0.904624 6.55375 1.29983 5.53292C1.70339 4.46262 2.33542 3.49316 3.15192 2.69208C3.9526 1.87615 4.92156 1.2446 5.99129 0.841458C7.01212 0.44625 8.17879 0.175 9.88504 0.09625H9.8865ZM22.9823 2.98375C21.2907 2.90646 20.7832 2.89042 16.5 2.89042C12.2169 2.89042 11.7094 2.90646 10.0177 2.98375C8.45296 3.05521 7.60421 3.31625 7.03837 3.53646C6.29025 3.82812 5.75504 4.17375 5.19358 4.73521C4.66136 5.25299 4.25176 5.88333 3.99483 6.58C3.77462 7.14583 3.51358 7.99458 3.44212 9.55937C3.36483 11.251 3.34879 11.7585 3.34879 16.0417C3.34879 20.3248 3.36483 20.8323 3.44212 22.524C3.51358 24.0887 3.77462 24.9375 3.99483 25.5033C4.2515 26.199 4.66129 26.8304 5.19358 27.3481C5.71129 27.8804 6.34275 28.2902 7.03837 28.5469C7.60421 28.7671 8.45296 29.0281 10.0177 29.0996C11.7094 29.1769 12.2155 29.1929 16.5 29.1929C20.7846 29.1929 21.2907 29.1769 22.9823 29.0996C24.5471 29.0281 25.3959 28.7671 25.9617 28.5469C26.7098 28.2552 27.245 27.9096 27.8065 27.3481C28.3388 26.8304 28.7486 26.199 29.0052 25.5033C29.2255 24.9375 29.4865 24.0887 29.558 22.524C29.6352 20.8323 29.6513 20.3248 29.6513 16.0417C29.6513 11.7585 29.6352 11.251 29.558 9.55937C29.4865 7.99458 29.2255 7.14583 29.0052 6.58C28.7136 5.83187 28.368 5.29667 27.8065 4.73521C27.2887 4.20302 26.6584 3.79343 25.9617 3.53646C25.3959 3.31625 24.5471 3.05521 22.9823 2.98375V2.98375ZM14.4511 20.9869C15.5954 21.4632 16.8695 21.5275 18.056 21.1688C19.2424 20.81 20.2675 20.0505 20.9561 19.0199C21.6448 17.9894 21.9543 16.7517 21.8318 15.5183C21.7093 14.2849 21.1623 13.1323 20.2844 12.2573C19.7248 11.698 19.0481 11.2697 18.303 11.0033C17.558 10.737 16.7632 10.6391 15.9758 10.7167C15.1884 10.7944 14.428 11.0457 13.7493 11.4525C13.0707 11.8593 12.4907 12.4115 12.0511 13.0694C11.6115 13.7272 11.3232 14.4744 11.207 15.257C11.0909 16.0397 11.1496 16.8383 11.3792 17.5955C11.6087 18.3527 12.0032 19.0496 12.5344 19.6361C13.0656 20.2225 13.7202 20.6838 14.4511 20.9869ZM10.6696 10.2112C11.4353 9.44559 12.3443 8.83823 13.3446 8.42386C14.345 8.00949 15.4172 7.79621 16.5 7.79621C17.5828 7.79621 18.6551 8.00949 19.6554 8.42386C20.6558 8.83823 21.5648 9.44559 22.3305 10.2112C23.0961 10.9769 23.7035 11.8859 24.1178 12.8863C24.5322 13.8867 24.7455 14.9589 24.7455 16.0417C24.7455 17.1245 24.5322 18.1967 24.1178 19.1971C23.7035 20.1974 23.0961 21.1064 22.3305 21.8721C20.7841 23.4184 18.6869 24.2871 16.5 24.2871C14.3132 24.2871 12.2159 23.4184 10.6696 21.8721C9.1233 20.3258 8.25459 18.2285 8.25459 16.0417C8.25459 13.8548 9.1233 11.7576 10.6696 10.2112V10.2112ZM26.5742 9.02417C26.7639 8.84518 26.9158 8.62995 27.0209 8.39121C27.126 8.15247 27.1821 7.89508 27.1859 7.63427C27.1897 7.37347 27.1411 7.11455 27.043 6.87285C26.945 6.63115 26.7994 6.41158 26.615 6.22714C26.4305 6.0427 26.211 5.89715 25.9693 5.79909C25.7276 5.70103 25.4687 5.65246 25.2078 5.65627C24.947 5.66007 24.6896 5.71616 24.4509 5.82122C24.2122 5.92629 23.9969 6.07818 23.818 6.26792C23.4699 6.63692 23.2793 7.12705 23.2867 7.63427C23.2941 8.14149 23.4989 8.62586 23.8576 8.98456C24.2163 9.34326 24.7006 9.54804 25.2078 9.55544C25.7151 9.56283 26.2052 9.37225 26.5742 9.02417V9.02417Z" fill="#B06F14"/>
</svg>
