<svg width="256" height="71" viewBox="0 0 256 71" fill="none" xmlns="http://www.w3.org/2000/svg">
<path d="M0 35.5V0H32H64V35.5V71H32H0V35.5ZM60.16 35.5V4.26H32H3.84V35.5V66.74H32H60.16V35.5ZM15.36 35.5V12.78H19.2H23.04V21.3V29.82H32.64H42.24V21.3V12.78H46.08H49.92V35.5V58.22H46.08H42.24V47.57V36.92H32.64H23.04V47.57V58.22H19.2H15.36V35.5ZM71.68 69.58V68.16H163.84H256V69.58V71H163.84H71.68V69.58ZM230.4 35.5V12.78H241.92H253.44V16.33V19.88H245.12H236.8V24.85V29.82H244.48H252.16V33.37V36.92H244.48H236.8V44.02V51.12H245.12H253.44V54.67V58.22H241.92H230.4V35.5Z" fill="white" fill-opacity="0.52"/>
<path d="M188.684 42.5171C190.205 47.7263 192.615 51.8116 197.383 52.1146C201.175 52.0952 204.448 48.6472 204.223 44.3806C203.351 39.4848 198.528 38.3441 195.471 36.9266C190.093 34.743 185.52 30.9991 185.102 24.3313C185.297 16.0414 191.727 12.9829 198.318 12.6198C205.246 12.8257 208.306 15.6701 210.701 21.6148L205.789 23.8898C205.207 20.5323 201.084 18.149 198.313 18.1098C194.433 18.0549 191.938 19.5121 191.803 23.6684C191.607 29.7148 198.188 31.3474 202.376 33.3911C207.114 35.7747 210.414 39.9363 210.721 45.7655C210.604 54.3965 204.486 57.752 197.504 58.1399C193.031 58.1399 186.144 56.173 183.336 44.5122" fill="white" fill-opacity="0.52"/>
<path d="M136.884 12.5888H142.312V39.7321C142.312 44.5204 143.088 47.9719 144.639 50.0867C146.19 52.1815 148.704 53.229 152.18 53.229C155.639 53.229 158.144 52.1815 159.695 50.0867C161.246 47.9719 162.021 44.5204 162.021 39.7321V12.5888H167.45V40.4803C167.45 46.306 166.157 50.7052 163.572 53.6779C161.005 56.6506 157.208 58.1369 152.18 58.1369C147.135 58.1369 143.32 56.6506 140.735 53.6779C138.167 50.7052 136.884 46.306 136.884 40.4803V12.5888Z" fill="white" fill-opacity="0.52"/>
<path d="M122.433 35.4773C122.223 49.2977 113.309 58.3074 100.872 58.2967C88.2359 58.286 79.2383 49.3599 79.2578 35.4773C79.2771 21.7925 88.3598 12.6765 100.872 12.658C106.565 12.6495 111.439 14.5887 115.495 18.45C118.839 21.6513 121.884 26.7179 122.433 35.4773ZM116.677 35.4773C116.654 24.7217 110.214 19.2912 100.872 18.6752C90.9333 18.6235 85.4185 25.08 84.7773 35.4773C84.7549 46.5393 91.3873 51.5662 100.872 52.1506C105.355 52.1506 109.864 50.7549 112.568 47.9635C115.307 45.1256 116.677 40.0366 116.677 35.4773Z" fill="white" fill-opacity="0.52"/>
</svg>
